{"title":"Jennifer Lopez - Get Right (h264/mp4)","uid":7352191,"size":185835483,"categoryP":"video","categoryS":"music_videos","magnet":"?xt=urn:btih:178eef7828b9c324604fde03e66139cd072e2cb1&amp;dn=Jennifer+Lopez+-+Get+Right+%28h264%2Fmp4%29&amp;tr=udp%3A%2F%2Ftracker.openbittorrent.com%3A80&amp;tr=udp%3A%2F%2Fopen.demonii.com%3A1337&amp;tr=udp%3A%2F%2Ftracker.coppersurfer.tk%3A6969&amp;tr=udp%3A%2F%2Fexodus.desync.com%3A6969","seeders":1,"leechers":0,"uploader":"MusicVideos-HQ","files":1,"time":1339641076,"description":"General\n\nFormat                           : MPEG-4\nFormat profile                   : Base Media\nCodec ID                         : isom\nFile size                        : 177 MiB\nDuration                         : 5mn 4s\nOverall bit rate                 : 4 876 Kbps\nEncoded date                     : UTC 2012-06-12 16:08:00\nTagged date                      : UTC 2012-06-12 16:08:00\n\nVideo\nID                               : 1\nFormat                           : AVC\nFormat/Info                      : Advanced Video Codec\nFormat profile                   : &lt;a class=&quot;__cf_email__&quot; href=&quot;/cdn-cgi/l/email-protection&quot; data-cfemail=&quot;b1f9d8d6d9f1fd829f81&quot;&gt;[email&amp;#160;protected]&lt;/a&gt;&lt;script cf-hash='f9e31' type=&quot;text/javascript&quot;&gt;\n/* &lt;![CDATA[ */!function(){try{var t=&quot;currentScript&quot;in document?document.currentScript:function(){for(var t=document.getElementsByTagName(&quot;script&quot;),e=t.length;e--;)if(t[e].getAttribute(&quot;cf-hash&quot;))return t[e]}();if(t&amp;&amp;t.previousSibling){var e,r,n,i,c=t.previousSibling,a=c.getAttribute(&quot;data-cfemail&quot;);if(a){for(e=&quot;&quot;,r=parseInt(a.substr(0,2),16),n=2;a.length-n;n+=2)i=parseInt(a.substr(n,2),16)^r,e+=String.fromCharCode(i);e=document.createTextNode(e),c.parentNode.replaceChild(e,c)}}}catch(u){}}();/* ]]&gt; */&lt;/script&gt;\nFormat settings, CABAC           : Yes\nFormat settings, ReFrames        : 2 frames\nCodec ID                         : avc1\nCodec ID/Info                    : Advanced Video Coding\nDuration                         : 5mn 4s\nBit rate mode                    : Variable\nBit rate                         : 4 769 Kbps\nMaximum bit rate                 : 7 004 Kbps\nWidth                            : 720 pixels\nHeight                           : 576 pixels\nDisplay aspect ratio             : 4:3\nOriginal display aspect ratio    : 4:3\nFrame rate mode                  : Constant\nFrame rate                       : 25.000 fps\nStandard                         : PAL\nColor space                      : YUV\nChroma subsampling               : 4:2:0\nBit depth                        : 8 bits\nScan type                        : Progressive\nBits/(Pixel*Frame)               : 0.460\nStream size                      : 174 MiB (98%)\n\n\nAudio\nID                               : 2\nFormat                           : AAC\nFormat/Info                      : Advanced Audio Codec\nFormat profile                   : LC\nCodec ID                         : 40\nDuration                         : 5mn 4s\nBit rate mode                    : Variable\nBit rate                         : 68.3 Kbps\nMaximum bit rate                 : 78.1 Kbps\nChannel(s)                       : 2 channels\nChannel positions                : Front: L R\nSampling rate                    : 48.0 KHz\nCompression mode                 : Lossy\nStream size                      : 2.48 MiB (1%)","torrent":{"xt":"urn:btih:178eef7828b9c324604fde03e66139cd072e2cb1","amp;dn":"Jennifer+Lopez+-+Get+Right+%28h264%2Fmp4%29","amp;tr":["udp%3A%2F%2Ftracker.openbittorrent.com%3A80","udp%3A%2F%2Fopen.demonii.com%3A1337","udp%3A%2F%2Ftracker.coppersurfer.tk%3A6969","udp%3A%2F%2Fexodus.desync.com%3A6969"],"infoHash":"178eef7828b9c324604fde03e66139cd072e2cb1","infoHashBuffer":{"type":"Buffer","data":[23,142,239,120,40,185,195,36,96,79,222,3,230,97,57,205,7,46,44,177]},"announce":[],"urlList":[]}}